<svg id="Layer_1" enable-background="new 0 0 128 128" height="512" viewBox="0 0 128 128" width="512" xmlns="http://www.w3.org/2000/svg"><path d="m121.5 66.8c0 9.6-7.8 17.4-17.4 17.4h-80.2c-9.6 0-17.4-7.8-17.4-17.4s7.8-17.4 17.4-17.4c1 0 2 .1 3 .3 4-14.4 19-22.8 33.4-18.7.7.2 1.4.4 2 .7 13.2-8.9 31-5.5 39.9 7.7 2.1 3.1 3.6 6.6 4.3 10.3 8.7 1.2 15 8.5 15 17.1z" fill="#45aeef"/><path d="m121.5 88.7c0 6.9-5.6 12.6-12.6 12.6h-58.1c-6.9 0-12.6-5.6-12.6-12.6 0-6.9 5.6-12.6 12.6-12.6.7 0 1.4.1 2.1.2 3-10.4 13.8-16.5 24.3-13.6.5.1 1 .3 1.5.5 9.5-6.4 22.5-3.9 28.9 5.6 1.5 2.3 2.6 4.8 3.1 7.5 6.2.9 10.8 6.2 10.8 12.4z" fill="#72bdf6"/></svg>